<?xml version="1.0" encoding="UTF-8"?><svg id="Layer_1" xmlns="http://www.w3.org/2000/svg" width="152" height="175" viewBox="0 0 152 175"><polygon points=".223 113.431 4.172 111.153 4.172 103.964 .223 101.684 .223 113.431" style="fill:#3598ec;"/><polygon points="29.603 148.213 33.552 150.492 33.552 134.475 29.603 132.195 29.603 148.213" style="fill:#3598ec;"/><polygon points="35.479 151.605 39.428 153.885 39.428 131.019 35.479 128.739 35.479 151.605" style="fill:#3598ec;"/><polygon points="23.727 144.82 27.676 147.1 27.676 137.834 23.727 135.554 23.727 144.82" style="fill:#3598ec;"/><polygon points="47.231 158.39 51.18 160.67 51.18 124.393 47.231 122.114 47.231 158.39" style="fill:#3598ec;"/><polygon points="6.099 110.026 10.337 107.593 6.099 105.158 6.099 110.026" style="fill:#3598ec;"/><polygon points="17.851 141.428 21.8 143.707 21.8 141.215 17.851 138.935 17.851 141.428" style="fill:#3598ec;"/><polygon points="41.355 154.998 45.304 157.277 45.304 127.713 41.355 125.433 41.355 154.998" style="fill:#3598ec;"/><polygon points="53.107 161.783 57.056 164.063 57.056 134.494 53.107 132.214 53.107 161.783" style="fill:#3598ec;"/><ellipse cx="97.289" cy="147.252" rx="4.14" ry="2.39" transform="translate(-78.935 156.925) rotate(-59.689)" style="fill:#7463e1;"/><path d="m118.226,126.738c.535-.309,1.035-.433,1.467-.396l.879-4.566c-.548.24-1.075.392-1.574.461l-.878,4.565c.035-.022.071-.044.106-.065Z" style="fill:#ffcd1e;"/><ellipse cx="118.226" cy="130.108" rx="4.14" ry="2.39" transform="translate(-53.763 166.509) rotate(-59.689)" style="fill:#7463e1;"/><path d="m135.338,108.538l-7.293,2.278c-.057.533-.155,1.075-.291,1.619l7.293-2.278c.034-.528.134-1.073.291-1.619Z" style="fill:#ffcd1e;"/><ellipse cx="139.396" cy="108.034" rx="6.151" ry="3.551" transform="translate(-24.222 173.852) rotate(-59.689)" style="fill:#3598ec;"/><path d="m118.27,102.48l1.069,5.029c.407-.385.831-.736,1.268-1.047l-1.069-5.029c-.402.397-.827.749-1.268,1.046Z" style="fill:#ffcd1e;"/><ellipse cx="117.85" cy="97.001" rx="7.057" ry="4.074" transform="translate(-25.368 149.786) rotate(-59.689)" style="fill:#3598ec;"/><path d="m104.813,117.855c-.035.526-.138,1.07-.302,1.613l10.237-3.061c.061-.531.164-1.071.303-1.613l-10.238,3.062Z" style="fill:#ffcd1e;"/><ellipse cx="100.742" cy="119.834" rx="5.759" ry="3.325" transform="translate(-53.554 146.326) rotate(-59.689)" style="fill:#ffcd1e;"/><path d="m129.556,101.835l-3.009,3.916c.376.3.694.691.943,1.167l3.008-3.915c-.463-.16-.801-.563-.942-1.168Z" style="fill:#ffcd1e;"/><path d="m111.531,107.442c-.181.447-.43.881-.724,1.266l5.442,2.972c.222-.432.465-.855.725-1.266l-5.442-2.972Z" style="fill:#ffcd1e;"/><ellipse cx="109.595" cy="107.215" rx="3.189" ry="1.841" transform="translate(-38.275 147.719) rotate(-59.689)" style="fill:#7463e1;"/><ellipse cx="110.923" cy="129.89" rx="2.746" ry="1.586" transform="translate(-57.193 160.096) rotate(-59.689)" style="fill:#3598ec;"/><path d="m133.088,92.687l-.903,3.804s.008-.005.012-.007c.584-.337,1.125-.437,1.567-.332l.904-3.805c-.574.281-1.111.389-1.58.341Z" style="fill:#ffcd1e;"/><ellipse cx="134.948" cy="88.01" rx="5.145" ry="2.971" transform="translate(-9.138 160.093) rotate(-59.689)" style="fill:#3598ec;"/><polygon points="76 105.364 76 110.202 136.508 75.267 138.964 71.592 136.508 70.429 76 105.364" style="fill:#3598ec;"/><polygon points="76 119.763 76 124.601 94.178 114.106 96.374 110.461 94.178 109.268 76 119.763" style="fill:#3598ec;"/><polygon points="76 141.363 76 146.201 106.548 128.564 108.783 124.854 106.548 123.726 76 141.363" style="fill:#3598ec;"/><path d="m144.077,85.522c0-.495.094-1.019.261-1.54l-5.742,1.991c-.007.528-.099,1.081-.259,1.633l5.742-1.991c0-.031-.002-.062-.002-.094Z" style="fill:#ffcd1e;"/><polygon points="76 148.562 76 153.401 101.891 138.452 104.126 134.743 101.891 133.614 76 148.562" style="fill:#3598ec;"/><polygon points="76 134.163 76 139.001 87.727 132.231 89.962 128.521 87.727 127.392 76 134.163" style="fill:#3598ec;"/><polygon points="76 162.962 76 167.8 92.734 158.139 94.617 154.394 92.734 153.301 76 162.962" style="fill:#3598ec;"/><polygon points="76 112.563 76 117.402 109.592 98.007 111.899 94.178 109.592 93.169 76 112.563" style="fill:#3598ec;"/><polygon points="76 126.963 76 131.801 92.559 122.241 94.794 118.531 92.559 117.403 76 126.963" style="fill:#3598ec;"/><polygon points="76 155.762 76 160.6 87.047 154.222 89.282 150.513 87.047 149.384 76 155.762" style="fill:#3598ec;"/><polygon points="76 170.162 76 175 90.333 166.725 92.568 163.015 90.333 161.886 76 170.162" style="fill:#3598ec;"/><polygon points="76 105.364 76 110.202 71.81 107.783 76 105.364" style="fill:#7463e1;"/><polygon points="76 119.763 76 124.601 63.53 117.402 61.495 113.738 63.53 112.563 76 119.763" style="fill:#7463e1;"/><polygon points="76 155.762 76 160.6 63.337 153.289 61.102 149.58 63.337 148.451 76 155.762" style="fill:#7463e1;"/><polygon points="76 134.163 76 139.001 55.019 126.887 53.002 123.214 55.019 122.049 76 134.163" style="fill:#7463e1;"/><ellipse cx="132.196" cy="99.596" rx="3.824" ry="2.208" transform="translate(-20.503 163.456) rotate(-59.689)" style="fill:#7463e1;"/><path d="m128.185,86.236c-.132.471-.332.942-.583,1.386l4.01.615c.149-.47.346-.937.583-1.386l-4.01-.615Z" style="fill:#ffcd1e;"/><ellipse cx="125.652" cy="86.586" rx="3.824" ry="2.208" transform="translate(-12.512 151.363) rotate(-59.689)" style="fill:#7463e1;"/><polygon points="76 148.562 76 153.401 60.733 144.586 58.498 140.877 60.733 139.748 76 148.562" style="fill:#7463e1;"/><polygon points="76 112.563 76 117.402 69.765 113.802 67.952 110.065 69.765 108.963 76 112.563" style="fill:#7463e1;"/><polygon points="76 126.963 76 131.801 57.294 121.002 55.203 117.371 57.294 116.163 76 126.963" style="fill:#7463e1;"/><polygon points="76 162.962 76 167.8 67.895 163.121 65.66 159.411 67.895 158.283 76 162.962" style="fill:#7463e1;"/><polygon points="76 141.363 76 146.201 65.651 140.226 63.416 136.516 65.651 135.388 76 141.363" style="fill:#7463e1;"/><polygon points="76 170.162 76 175 61.667 166.725 59.528 162.971 61.667 161.886 76 170.162" style="fill:#7463e1;"/><polygon points="9.695 49.219 .223 43.75 7.283 39.674 16.755 45.143 9.695 49.219" style="fill:#ffcd1e;"/><polygon points="16.755 45.143 7.283 39.674 14.342 35.598 23.814 41.067 16.755 45.143" style="fill:#3598ec;"/><polygon points="37.934 32.915 28.462 27.446 35.522 23.37 44.994 28.839 37.934 32.915" style="fill:#3598ec;"/><polygon points="23.814 41.067 14.342 35.598 21.402 31.522 30.874 36.991 23.814 41.067" style="fill:#7463e1;"/><polygon points="30.874 36.991 21.402 31.522 28.462 27.446 37.934 32.915 30.874 36.991" style="fill:#ffcd1e;"/><polygon points="26.227 50.612 16.755 45.143 23.814 41.067 33.287 46.536 26.227 50.612" style="fill:#7463e1;"/><polygon points="40.346 42.46 30.874 36.991 37.934 32.915 47.406 38.384 40.346 42.46" style="fill:#3598ec;"/><polygon points="28.639 60.156 19.167 54.687 26.227 50.612 35.699 56.08 28.639 60.156" style="fill:#7463e1;"/><polygon points="35.699 56.08 26.227 50.612 33.287 46.536 42.759 52.004 35.699 56.08" style="fill:#ffcd1e;"/><polygon points="42.759 52.004 33.287 46.536 40.346 42.46 49.819 47.928 42.759 52.004" style="fill:#7463e1;"/><polygon points="38.111 65.625 28.639 60.156 35.699 56.08 45.171 61.549 38.111 65.625" style="fill:#ffcd1e;"/><polygon points="45.171 61.549 35.699 56.08 42.759 52.004 52.231 57.473 45.171 61.549" style="fill:#3598ec;"/><polygon points="47.584 71.094 38.111 65.625 45.171 61.549 54.643 67.018 47.584 71.094" style="fill:#3598ec;"/><path d="m129.985,38.438c2.286-1.07,4.497-2.219,6.623-3.446l-12.122-6.998c-1.701.982-3.47,1.901-5.299,2.757l10.797,7.688Z" style="fill:#3598ec;"/><path d="m102.664,46.975c-1.42.263-2.849.505-4.287.724l-4.475-9.54c1.148-.175,2.29-.368,3.424-.578l5.339,9.394Z" style="fill:#ffcd1e;"/><path d="m97.326,37.581c1.134-.21,2.26-.438,3.377-.683l6.176,9.224c-1.394.306-2.799.591-4.214.853l-5.339-9.394Z" style="fill:#3598ec;"/><path d="m100.703,36.898c1.103-.242,2.198-.502,3.282-.779l7.023,9.023c-1.364.348-2.741.675-4.129.98l-6.176-9.224Z" style="fill:#ffcd1e;"/><path d="m111.007,45.142c1.357-.347,2.702-.715,4.033-1.105l-7.808-8.807c-1.072.314-2.155.61-3.248.889l7.023,9.023Z" style="fill:#3598ec;"/><path d="m118.965,42.81c1.284-.427,2.554-.875,3.806-1.345l-9.354-8.293c-1.005.377-2.024.736-3.055,1.079l8.603,8.559Z" style="fill:#3598ec;"/><path d="m107.232,35.23c1.055-.309,2.098-.635,3.129-.978l8.603,8.559c-1.293.43-2.602.839-3.925,1.227l-7.808-8.807Z" style="fill:#ffcd1e;"/><path d="m90.435,38.633c1.159-.14,2.315-.298,3.467-.474l4.476,9.541c-1.444.221-2.894.419-4.348.594l-3.594-9.661Z" style="fill:#3598ec;"/><path d="m122.771,41.466c2.474-.927,4.883-1.936,7.214-3.027l-10.797-7.688c-1.865.873-3.792,1.68-5.771,2.422l9.354,8.293Z" style="fill:#ffcd1e;"/><path d="m107.232,35.23c6.223-1.823,12.056-4.235,17.254-7.236l-12.122-6.998c-3.898,2.251-8.274,4.06-12.941,5.427l7.808,8.807Z" style="fill:#7463e1;"/><path d="m107.232,35.23c-4.286,1.256-8.756,2.232-13.331,2.929l-4.475-9.54c3.431-.523,6.783-1.255,9.998-2.197l7.808,8.807Z" style="fill:#ffcd1e;"/><path d="m62.884,28.571c8.691,1.354,17.865,1.371,26.542.048l4.475,9.54c-11.569,1.764-23.801,1.741-35.39-.064l4.372-9.524Z" style="fill:#7463e1;"/><path d="m58.512,38.095c-3.824-.596-7.578-1.386-11.214-2.37l7.176-8.931c2.728.738,5.543,1.33,8.411,1.777l-4.372,9.524Z" style="fill:#3598ec;"/><path d="m89.426,28.619c8.411-1.282,16.355-3.823,22.939-7.624l-12.122-6.998c-4.389,2.534-9.685,4.228-15.292,5.083l4.475,9.54Z" style="fill:#3598ec;"/><path d="m54.473,26.794c-5.285-1.43-10.241-3.407-14.611-5.93l12.046-6.955c2.913,1.682,6.217,3,9.741,3.953,7.329,1.983,15.609,2.39,23.302,1.217l4.475,9.54c-11.54,1.759-23.96,1.149-34.953-1.825Z" style="fill:#ffcd1e;"/><path d="m84.951,19.079c5.608-.855,10.903-2.549,15.292-5.083l-12.122-6.998c-2.195,1.267-4.842,2.114-7.646,2.541h0c-3.847.586-7.987.383-11.651-.608-1.762-.477-3.414-1.136-4.87-1.977l-12.046,6.955c2.913,1.682,6.217,3,9.741,3.953,7.329,1.983,15.609,2.39,23.302,1.217h0Z" style="fill:#7463e1;"/><path d="m88.122,6.998l-12.122-6.998-12.046,6.955c6.695,3.865,17.515,3.885,24.168.044Z" style="fill:#3598ec;"/><polygon id="spark_blunt" points="105.145 52.855 96.18 58.031 84.62 51.357 91.765 60.58 86.166 63.813 62.01 49.866 77.733 68.682 72.296 71.821 63.728 66.874 67.337 74.684 12.264 106.48 7.86 103.937 61.065 73.219 56.311 62.932 60.434 60.552 69.125 65.569 50.61 43.414 54.551 41.139 83.91 58.09 74.115 45.445 78.076 43.158 95.604 53.278 100.741 50.312 105.157 50.652 105.145 52.855" style="fill:#3598ec;"/><g id="skinny_i"><polygon points="96.462 62.225 102.291 58.86 102.291 72.321 105.205 77.369 108.12 68.956 108.12 55.494 113.949 52.129 113.949 65.59 108.12 82.417 102.291 85.783 96.462 75.687 96.462 62.225" style="fill:#fff;"/><polygon points="121.205 47.939 121.205 74.862 127.034 71.497 127.034 44.574 121.205 47.939" style="fill:#fff;"/><polygon points="134.29 40.385 151.777 30.288 151.777 37.019 140.119 57.212 151.777 50.481 151.777 57.212 134.29 67.308 134.29 60.577 145.948 40.385 134.29 47.115 134.29 40.385" style="fill:#fff;"/><polygon points="48.342 90.007 48.342 96.738 54.171 93.372 54.171 113.564 60 110.199 60 90.007 65.829 86.641 65.829 79.911 48.342 90.007" style="fill:#fff;"/><path d="m11.881,111.058l5.829,3.365v13.462l-5.829,10.096L.223,144.712v-26.923l11.658-6.731Zm0,6.731l-5.829,3.365v13.462l5.829-3.365v-13.462Z" style="fill:#fff;"/><path d="m83.376,69.78l-5.829,3.365-5.829,16.827v13.462l5.829-3.365v-6.731l5.829-3.365v6.731l5.829-3.365v-13.462l-5.829-10.096Zm-5.829,16.827l2.915-8.413,2.915,5.048-5.829,3.365Z" style="fill:#fff;"/><path d="m36.624,96.772l-5.829,3.365-5.829,16.827v13.462l5.829-3.365v-6.731l5.829-3.365v6.731l5.829-3.365v-13.462l-5.829-10.096Zm-5.829,16.827l2.915-8.413,2.915,5.048-5.829,3.365Z" style="fill:#fff;"/></g><path d="m143.82,99.437l-1.881,3.062c.489.121.902.398,1.21.816l1.88-3.062c-.476-.145-.886-.421-1.21-.817Z" style="fill:#ffcd1e;"/><path d="m151.777,87.472c-.929-.516-2.206-.43-3.615.384-2.842,1.641-5.146,5.615-5.146,8.877s2.304,4.575,5.146,2.934c1.409-.814,2.686-2.201,3.615-3.791v-8.403Z" style="fill:#ffcd1e;"/><ellipse cx="121.391" cy="113.658" rx="9.463" ry="5.463" transform="translate(-37.995 161.094) rotate(-59.689)" style="fill:#7463e1;"/><path d="m142.338,77.489l-4.803,6.074c.414.238.728.649.904,1.208l4.804-6.075c-.366-.312-.671-.717-.905-1.207Z" style="fill:#ffcd1e;"/><path d="m151.777,62.773c-1.001-.143-2.186.123-3.455.856-3.594,2.075-6.508,7.1-6.508,11.225s2.914,5.785,6.508,3.71c1.27-.733,2.454-1.835,3.455-3.135v-12.656Z" style="fill:#3598ec;"/><ellipse cx="147.014" cy="83.826" rx="4.14" ry="2.39" transform="translate(.45 168.437) rotate(-59.689)" style="fill:#7463e1;"/><polygon points="14.432 83.881 14.432 77.605 9.695 71.732 4.958 72.136 4.958 78.412 9.695 84.285 14.432 83.881" style="fill:#ffcd1e;"/><polygon points="19.169 77.202 19.169 70.925 14.432 65.052 9.695 65.456 9.695 71.732 14.432 77.605 19.169 77.202" style="fill:#3598ec;"/><polygon points="28.642 82.671 28.642 76.395 23.905 70.522 19.169 70.925 19.169 77.202 23.905 83.075 28.642 82.671" style="fill:#ffcd1e;"/><polygon points="23.905 89.351 23.905 83.075 19.169 77.202 14.432 77.605 14.432 83.881 19.169 89.754 23.905 89.351" style="fill:#7463e1;"/><polygon points="14.432 65.052 14.432 58.776 9.695 52.903 4.958 53.307 4.958 59.583 9.695 65.456 14.432 65.052" style="fill:#ffcd1e;"/><polygon points="23.905 70.522 23.905 64.246 19.169 58.373 14.432 58.776 14.432 65.052 19.169 70.925 23.905 70.522" style="fill:#7463e1;"/><polygon points="33.379 75.992 33.379 69.715 28.642 63.842 23.905 64.246 23.905 70.522 28.642 76.395 33.379 75.992" style="fill:#ffcd1e;"/><polygon points="42.853 81.461 42.853 75.185 38.116 69.312 33.379 69.715 33.379 75.992 38.116 81.865 42.853 81.461" style="fill:#7463e1;"/><polygon points="9.695 49.219 9.695 52.903 14.432 58.776 19.169 58.373 19.169 54.688 9.695 49.219" style="fill:#ffcd1e;"/><polygon points="28.642 60.158 28.642 63.842 33.379 69.715 38.116 69.312 38.116 65.628 28.642 60.158" style="fill:#3598ec;"/><polygon points="38.116 65.628 38.116 69.312 42.853 75.185 47.589 74.782 47.589 71.097 38.116 65.628" style="fill:#ffcd1e;"/><polygon points=".223 43.75 .223 47.435 4.958 53.307 9.695 52.903 9.695 49.219 .223 43.75" style="fill:#7463e1;"/><polygon points=".223 47.435 .223 59.986 4.958 59.583 4.958 53.307 .223 47.435" style="fill:#3598ec;"/><polygon points="4.958 59.583 .223 59.986 .223 66.264 4.958 72.136 9.695 71.732 9.695 65.456 4.958 59.583" style="fill:#7463e1;"/><polygon points=".223 66.264 .223 78.815 4.958 78.412 4.958 72.136 .223 66.264" style="fill:#3598ec;"/><polygon points="4.958 78.412 .223 78.815 .223 85.093 4.958 90.965 9.695 90.561 9.695 84.285 4.958 78.412" style="fill:#7463e1;"/><polygon points=".223 85.093 .223 97.644 4.958 97.241 4.958 90.965 .223 85.093" style="fill:#3598ec;"/><polygon points="108.622 135.291 118.62 137.336 130.804 118.17 139.559 122.246 151.777 98.642 151.777 131.25 94.944 164.062 108.622 135.291" style="fill:#3598ec;"/><polygon points="108.622 146.036 117.3 146.191 130.804 129.129 139.559 129.677 151.777 113.732 151.777 131.25 94.944 164.062 108.622 146.036" style="fill:#7463e1;"/></svg>